# xmcd CD database file
# Copyright (C) 1995-1998 Ti Kan
#
# Track frame offsets:
#	150
#	12105
#	21942
#	32147
#	44065
#	55085
#	65522
#	78205
#	89407
#	98417
#	109875
#	126662
#	137685
#	148142
#	160777
#	171577
#	183422
#	197027
#	208727
#	217442
#	227567
#	239020
#	251752
#	263917
#	277037
#	288592
#	302200
#	313652
#	328802
#
# Disc length: 4548 seconds
#
# Revision: 1
# Processed by: cddbd v1.4PL0 Copyright (c) Steve Scherf et al.
# Submitted via: CDex 1.30Release
#
DISCID=ca11c21d
DTITLE=Hank Snow - The Singing Ranger Vol. 3 [CD04 of 12)
DYEAR=1992
DGENRE=Country
TTITLE0=Ninety Miles An Hour (Down A Dead End Street) 1963
TTITLE1=My Memories Of You 1964
TTITLE2=The Wishing Well 1964
TTITLE3=I Stepped Over The Line 1964
TTITLE4=Ninety Days 1964
TTITLE5=The Wedding Picture 1992
TTITLE6=I've Cried A Mile 1965
TTITLE7=Listen 1966
TTITLE8=Friend 1992
TTITLE9=When Today Is A Long Time Ago 1992
TTITLE10=Black Diamond 1963
TTITLE11=Ancient History 1962
TTITLE12=You're Losing Your Baby 1963
TTITLE13=You're The Reason 1963
TTITLE14=It's A Little More Like Heaven 1963
TTITLE15=I Went To Your Wedding 1963
TTITLE16=Just A Faded Petal From A Beautiful Bouquet 1992
TTITLE17=Blue Roses 1963
TTITLE18=Human 1964
TTITLE19=Breakfast With The Blues 1963
TTITLE20=Down The Trail Of Achin' Hearts 1963
TTITLE21=Let Me Go Lover 1963
TTITLE22=Tangled Mind 1963
TTITLE23=The Next Voice You Hear 1963
TTITLE24=Stolen Moments 1963
TTITLE25=The Gal Who Invented Kissin' 1963
TTITLE26=The Gold Rush Is Over 1963
TTITLE27=Just A Faded Petal From A Beautiful Bouquet 1963
TTITLE28=A Letter From Vietnam (To Mother) 1967
EXTD=YEAR: 1992 ID3G:   2
EXTT0=
EXTT1=
EXTT2=
EXTT3=
EXTT4=
EXTT5=
EXTT6=
EXTT7=
EXTT8=
EXTT9=
EXTT10=
EXTT11=
EXTT12=
EXTT13=
EXTT14=
EXTT15=
EXTT16=
EXTT17=
EXTT18=
EXTT19=
EXTT20=
EXTT21=
EXTT22=
EXTT23=
EXTT24=
EXTT25=
EXTT26=
EXTT27=
EXTT28=
PLAYORDER=
